<svg width="70" height="78" viewBox="0 0 70 78" fill="none" xmlns="http://www.w3.org/2000/svg">
<path d="M36.69 55.51C37.4033 55.51 37.9533 55.78 38.34 56.32H38.39L38.51 55.61H39.37V61.07C39.37 61.8367 39.1633 62.4167 38.75 62.81C38.3433 63.2033 37.72 63.4 36.88 63.4C36.4867 63.4 36.1267 63.3733 35.8 63.32C35.48 63.2667 35.1833 63.1833 34.91 63.07V62.14C35.4833 62.42 36.16 62.56 36.94 62.56C37.38 62.56 37.72 62.4333 37.96 62.18C38.2 61.9333 38.32 61.5833 38.32 61.13V60.95C38.32 60.8633 38.3233 60.75 38.33 60.61C38.3367 60.47 38.3433 60.3633 38.35 60.29H38.31C38.13 60.57 37.9033 60.7767 37.63 60.91C37.3567 61.0367 37.0433 61.1 36.69 61.1C36.01 61.1 35.4767 60.8567 35.09 60.37C34.71 59.8767 34.52 59.1933 34.52 58.32C34.52 57.4533 34.71 56.77 35.09 56.27C35.4767 55.7633 36.01 55.51 36.69 55.51ZM36.91 56.39C36.49 56.39 36.1667 56.5567 35.94 56.89C35.72 57.2233 35.61 57.7033 35.61 58.33C35.61 58.9567 35.72 59.4333 35.94 59.76C36.1667 60.0867 36.4967 60.25 36.93 60.25C37.4233 60.25 37.7833 60.1167 38.01 59.85C38.2433 59.5767 38.36 59.1333 38.36 58.52V58.32C38.36 57.6333 38.2433 57.14 38.01 56.84C37.7767 56.54 37.41 56.39 36.91 56.39ZM43.6512 55.51C44.3578 55.51 44.9145 55.73 45.3212 56.17C45.7278 56.6033 45.9312 57.1967 45.9312 57.95V58.53H42.3112C42.3245 59.0833 42.4678 59.5067 42.7412 59.8C43.0212 60.0933 43.4112 60.24 43.9112 60.24C44.2578 60.24 44.5645 60.21 44.8312 60.15C45.1045 60.0833 45.3845 59.9867 45.6712 59.86V60.74C45.3978 60.86 45.1245 60.95 44.8512 61.01C44.5778 61.07 44.2512 61.1 43.8712 61.1C43.3445 61.1 42.8812 60.9967 42.4812 60.79C42.0878 60.5833 41.7778 60.2767 41.5512 59.87C41.3312 59.4567 41.2212 58.95 41.2212 58.35C41.2212 57.7433 41.3212 57.23 41.5212 56.81C41.7278 56.39 42.0112 56.07 42.3712 55.85C42.7378 55.6233 43.1645 55.51 43.6512 55.51ZM43.6512 56.33C43.2712 56.33 42.9645 56.4533 42.7312 56.7C42.5045 56.9467 42.3712 57.2967 42.3312 57.75H44.8712C44.8645 57.33 44.7612 56.99 44.5612 56.73C44.3678 56.4633 44.0645 56.33 43.6512 56.33ZM49.6938 60.24C49.8338 60.24 49.9772 60.23 50.1238 60.21C50.2705 60.1833 50.3972 60.15 50.5038 60.11V60.91C50.3838 60.9633 50.2272 61.0067 50.0338 61.04C49.8472 61.08 49.6572 61.1 49.4638 61.1C49.1705 61.1 48.9005 61.05 48.6538 60.95C48.4072 60.85 48.2105 60.6767 48.0638 60.43C47.9238 60.1833 47.8538 59.84 47.8538 59.4V56.42H47.1038V55.94L47.8938 55.54L48.2638 54.4H48.9138V55.61H50.4538V56.42H48.9138V59.38C48.9138 59.6733 48.9838 59.89 49.1238 60.03C49.2705 60.17 49.4605 60.24 49.6938 60.24ZM54.772 55.51C55.4186 55.51 55.9386 55.7433 56.332 56.21C56.732 56.6767 56.932 57.3733 56.932 58.3C56.932 59.2133 56.732 59.91 56.332 60.39C55.932 60.8633 55.4086 61.1 54.762 61.1C54.3486 61.1 54.012 61.0267 53.752 60.88C53.4986 60.7267 53.2953 60.5467 53.142 60.34H53.072C53.092 60.46 53.1086 60.6033 53.122 60.77C53.1353 60.93 53.142 61.0733 53.142 61.2V63.4H52.082V55.61H52.942L53.092 56.33H53.142C53.2953 56.1033 53.4986 55.91 53.752 55.75C54.012 55.59 54.352 55.51 54.772 55.51ZM54.522 56.38C54.022 56.38 53.6686 56.5267 53.462 56.82C53.2553 57.1067 53.1486 57.5433 53.142 58.13V58.29C53.142 58.91 53.242 59.39 53.442 59.73C53.642 60.0633 54.0086 60.23 54.542 60.23C54.982 60.23 55.3086 60.05 55.522 59.69C55.7353 59.33 55.842 58.86 55.842 58.28C55.842 57.6933 55.7353 57.23 55.522 56.89C55.3086 56.55 54.9753 56.38 54.522 56.38ZM60.8731 55.51C61.5465 55.51 62.0498 55.66 62.3831 55.96C62.7231 56.2533 62.8931 56.7167 62.8931 57.35V61H62.1431L61.9331 60.25H61.8931C61.6598 60.5433 61.4131 60.76 61.1531 60.9C60.8998 61.0333 60.5465 61.1 60.0931 61.1C59.6065 61.1 59.2031 60.97 58.8831 60.71C58.5631 60.4433 58.4031 60.03 58.4031 59.47C58.4031 58.9233 58.6098 58.5067 59.0231 58.22C59.4365 57.9333 60.0731 57.7767 60.9331 57.75L61.8531 57.72V57.42C61.8531 57.0267 61.7631 56.75 61.5831 56.59C61.4031 56.4233 61.1498 56.34 60.8231 56.34C60.5498 56.34 60.2865 56.38 60.0331 56.46C59.7798 56.54 59.5365 56.6367 59.3031 56.75L58.9631 55.98C59.2165 55.8467 59.5065 55.7367 59.8331 55.65C60.1665 55.5567 60.5131 55.51 60.8731 55.51ZM61.8431 58.41L61.1231 58.43C60.5098 58.4567 60.0831 58.56 59.8431 58.74C59.6098 58.9133 59.4931 59.16 59.4931 59.48C59.4931 59.76 59.5765 59.9633 59.7431 60.09C59.9098 60.2167 60.1265 60.28 60.3931 60.28C60.8065 60.28 61.1498 60.1633 61.4231 59.93C61.7031 59.6967 61.8431 59.3467 61.8431 58.88V58.41ZM64.2053 55.61H65.3453L66.4653 58.67C66.552 58.9033 66.6253 59.13 66.6853 59.35C66.752 59.5633 66.802 59.7733 66.8353 59.98H66.8753C66.9086 59.8067 66.9586 59.6033 67.0253 59.37C67.0986 59.1367 67.1786 58.9 67.2653 58.66L68.3253 55.61H69.4653L67.1553 61.73C66.962 62.25 66.702 62.6567 66.3753 62.95C66.0553 63.25 65.6353 63.4 65.1153 63.4C64.9486 63.4 64.8053 63.39 64.6853 63.37C64.5653 63.3567 64.462 63.34 64.3753 63.32V62.48C64.442 62.4933 64.5286 62.5067 64.6353 62.52C64.742 62.5333 64.852 62.54 64.9653 62.54C65.272 62.54 65.5186 62.45 65.7053 62.27C65.892 62.0967 66.0386 61.8667 66.1453 61.58L66.3653 61L64.2053 55.61Z" fill="#1A1D24"/>
<path d="M18.078 31.336H29.946V47.712C28.198 48.2947 26.404 48.724 24.564 49C22.7547 49.3067 20.6847 49.46 18.354 49.46C13.3247 49.46 9.46067 47.9727 6.762 44.998C4.094 41.9927 2.76 37.8527 2.76 32.578C2.76 29.1433 3.41933 26.1687 4.738 23.654C6.08733 21.1087 8.03467 19.146 10.58 17.766C13.1253 16.386 16.2073 15.696 19.826 15.696C21.6353 15.696 23.368 15.88 25.024 16.248C26.68 16.5853 28.2133 17.0607 29.624 17.674L27.83 21.814C26.6953 21.3233 25.4227 20.894 24.012 20.526C22.632 20.158 21.1753 19.974 19.642 19.974C15.9927 19.974 13.1253 21.1087 11.04 23.378C8.95467 25.6473 7.912 28.7293 7.912 32.624C7.912 35.108 8.29533 37.3007 9.062 39.202C9.82867 41.0727 11.04 42.5447 12.696 43.618C14.352 44.6913 16.514 45.228 19.182 45.228C20.5007 45.228 21.6047 45.1667 22.494 45.044C23.414 44.8907 24.2573 44.722 25.024 44.538V35.614H18.078V31.336Z" fill="#C24D2C"/>
<path d="M34.57 31.156C38.8633 31.156 41.9913 32.03 43.954 33.778C45.9167 35.4953 46.898 37.9027 46.898 41C46.898 42.84 46.484 44.5573 45.656 46.152C44.8587 47.7467 43.5093 49.05 41.608 50.062C39.7067 51.0433 37.1307 51.534 33.88 51.534H30.338V64H25.37V31.156H34.57ZM34.202 35.342H30.338V47.348H33.328C36.1187 47.348 38.2193 46.8727 39.63 45.922C41.0713 44.9713 41.792 43.392 41.792 41.184C41.792 39.2213 41.1787 37.7647 39.952 36.814C38.7253 35.8327 36.8087 35.342 34.202 35.342Z" fill="#C24D2C"/>
</svg>
