<svg width="31" height="31" viewBox="0 0 31 31" fill="none" xmlns="http://www.w3.org/2000/svg">
<path d="M23.3711 13.9258C24.0399 13.9258 24.582 13.3836 24.582 12.7148C24.582 12.0461 24.0399 11.5039 23.3711 11.5039C22.7023 11.5039 22.1602 12.0461 22.1602 12.7148C22.1602 13.3836 22.7023 13.9258 23.3711 13.9258Z" fill="#C24D2C"/>
<path d="M26.1562 2.42188H24.582V1.21094C24.582 0.542137 24.0399 0 23.3711 0C22.7023 0 22.1602 0.542137 22.1602 1.21094V2.42188H16.6504V1.21094C16.6504 0.542137 16.1083 0 15.4395 0C14.7707 0 14.2285 0.542137 14.2285 1.21094V2.42188H8.7793V1.21094C8.7793 0.542137 8.23716 0 7.56836 0C6.89956 0 6.35742 0.542137 6.35742 1.21094V2.42188H4.84375C2.17291 2.42188 0 4.59478 0 7.26562V26.1562C0 28.8271 2.17291 31 4.84375 31H14.1074C14.7762 31 15.3184 30.4579 15.3184 29.7891C15.3184 29.1203 14.7762 28.5781 14.1074 28.5781H4.84375C3.50833 28.5781 2.42188 27.4917 2.42188 26.1562V7.26562C2.42188 5.9302 3.50833 4.84375 4.84375 4.84375H6.35742V6.05469C6.35742 6.72349 6.89956 7.26562 7.56836 7.26562C8.23716 7.26562 8.7793 6.72349 8.7793 6.05469V4.84375H14.2285V6.05469C14.2285 6.72349 14.7707 7.26562 15.4395 7.26562C16.1083 7.26562 16.6504 6.72349 16.6504 6.05469V4.84375H22.1602V6.05469C22.1602 6.72349 22.7023 7.26562 23.3711 7.26562C24.0399 7.26562 24.582 6.72349 24.582 6.05469V4.84375H26.1562C27.4917 4.84375 28.5781 5.9302 28.5781 7.26562V14.168C28.5781 14.8368 29.1203 15.3789 29.7891 15.3789C30.4579 15.3789 31 14.8368 31 14.168V7.26562C31 4.59478 28.8271 2.42188 26.1562 2.42188Z" fill="#C24D2C"/>
<path d="M23.6738 16.3477C19.6341 16.3477 16.3477 19.6341 16.3477 23.6738C16.3477 27.7135 19.6341 31 23.6738 31C27.7135 31 31 27.7135 31 23.6738C31 19.6341 27.7135 16.3477 23.6738 16.3477ZM23.6738 28.5781C20.9696 28.5781 18.7695 26.3781 18.7695 23.6738C18.7695 20.9696 20.9696 18.7695 23.6738 18.7695C26.378 18.7695 28.5781 20.9696 28.5781 23.6738C28.5781 26.3781 26.378 28.5781 23.6738 28.5781Z" fill="#C24D2C"/>
<path d="M25.4297 22.4629H24.8848V21.1914C24.8848 20.5226 24.3426 19.9805 23.6738 19.9805C23.005 19.9805 22.4629 20.5226 22.4629 21.1914V23.6738C22.4629 24.3426 23.005 24.8848 23.6738 24.8848H25.4297C26.0985 24.8848 26.6406 24.3426 26.6406 23.6738C26.6406 23.005 26.0985 22.4629 25.4297 22.4629Z" fill="#C24D2C"/>
<path d="M18.1035 13.9258C18.7723 13.9258 19.3145 13.3836 19.3145 12.7148C19.3145 12.0461 18.7723 11.5039 18.1035 11.5039C17.4347 11.5039 16.8926 12.0461 16.8926 12.7148C16.8926 13.3836 17.4347 13.9258 18.1035 13.9258Z" fill="#C24D2C"/>
<path d="M12.8359 19.1934C13.5047 19.1934 14.0469 18.6512 14.0469 17.9824C14.0469 17.3136 13.5047 16.7715 12.8359 16.7715C12.1672 16.7715 11.625 17.3136 11.625 17.9824C11.625 18.6512 12.1672 19.1934 12.8359 19.1934Z" fill="#C24D2C"/>
<path d="M7.56836 13.9258C8.23714 13.9258 8.7793 13.3836 8.7793 12.7148C8.7793 12.0461 8.23714 11.5039 7.56836 11.5039C6.89958 11.5039 6.35742 12.0461 6.35742 12.7148C6.35742 13.3836 6.89958 13.9258 7.56836 13.9258Z" fill="#C24D2C"/>
<path d="M7.56836 19.1934C8.23714 19.1934 8.7793 18.6512 8.7793 17.9824C8.7793 17.3136 8.23714 16.7715 7.56836 16.7715C6.89958 16.7715 6.35742 17.3136 6.35742 17.9824C6.35742 18.6512 6.89958 19.1934 7.56836 19.1934Z" fill="#C24D2C"/>
<path d="M7.56836 24.4609C8.23714 24.4609 8.7793 23.9188 8.7793 23.25C8.7793 22.5812 8.23714 22.0391 7.56836 22.0391C6.89958 22.0391 6.35742 22.5812 6.35742 23.25C6.35742 23.9188 6.89958 24.4609 7.56836 24.4609Z" fill="#C24D2C"/>
<path d="M12.8359 24.4609C13.5047 24.4609 14.0469 23.9188 14.0469 23.25C14.0469 22.5812 13.5047 22.0391 12.8359 22.0391C12.1672 22.0391 11.625 22.5812 11.625 23.25C11.625 23.9188 12.1672 24.4609 12.8359 24.4609Z" fill="#C24D2C"/>
<path d="M12.8359 13.9258C13.5047 13.9258 14.0469 13.3836 14.0469 12.7148C14.0469 12.0461 13.5047 11.5039 12.8359 11.5039C12.1672 11.5039 11.625 12.0461 11.625 12.7148C11.625 13.3836 12.1672 13.9258 12.8359 13.9258Z" fill="#C24D2C"/>
</svg>
