<svg width="40" height="40" viewBox="0 0 40 40" fill="none" xmlns="http://www.w3.org/2000/svg">
<path d="M20 1.52588e-05C17.7908 1.52588e-05 16 1.79085 16 4.00001C16 6.20918 17.7908 8.00001 20 8.00001C22.2083 7.99785 23.9978 6.20826 24 4.00001C24 1.79085 22.2092 1.52588e-05 20 1.52588e-05ZM20 6.66668C18.5273 6.66668 17.3333 5.47276 17.3333 4.00001C17.3333 2.52726 18.5273 1.33335 20 1.33335C21.4728 1.33335 22.6667 2.52726 22.6667 4.00001C22.6667 5.47276 21.4728 6.66668 20 6.66668Z" fill="#C24D2C"/>
<path d="M22.6667 8.66667H22.5093L22.3687 8.73667C20.8769 9.47942 19.1231 9.47942 17.6313 8.73667L17.4907 8.66667H17.3333C15.4933 8.66884 14.0022 10.16 14 12V16C14 17.1046 14.8954 18 16 18H24C25.1046 18 26 17.1046 26 16V12C25.9978 10.16 24.5067 8.66884 22.6667 8.66667ZM24.6667 16C24.6667 16.3682 24.3682 16.6667 24 16.6667H16C15.6318 16.6667 15.3333 16.3682 15.3333 16V12C15.3335 10.9507 16.1446 10.0798 17.1913 10.0053C18.9726 10.832 21.0275 10.832 22.8087 10.0053C23.8553 10.0798 24.6665 10.9507 24.6667 12V16Z" fill="#C24D2C"/>
<path d="M34 22C31.7908 22 30 23.7908 30 26C30 28.2092 31.7908 30 34 30C36.2092 30 38 28.2092 38 26C37.9978 23.7917 36.2082 22.0022 34 22ZM34 28.6667C32.5272 28.6667 31.3333 27.4727 31.3333 26C31.3333 24.5272 32.5272 23.3333 34 23.3333C35.4727 23.3333 36.6667 24.5272 36.6667 26C36.6667 27.4727 35.4727 28.6667 34 28.6667Z" fill="#C24D2C"/>
<path d="M36.6667 30.6667H36.5093L36.3687 30.7333C34.8769 31.476 33.1231 31.476 31.6313 30.7333L31.4907 30.6667H31.3333C29.4933 30.6688 28.0022 32.16 28 34V38C28 39.1046 28.8954 40 30 40H38C39.1046 40 40 39.1046 40 38V34C39.9978 32.16 38.5067 30.6688 36.6667 30.6667ZM38.6667 38C38.6667 38.3682 38.3682 38.6667 38 38.6667H30C29.6318 38.6667 29.3333 38.3682 29.3333 38V34C29.3335 32.9507 30.1446 32.0798 31.1913 32.0053C32.9726 32.832 35.0274 32.832 36.8087 32.0053C37.8554 32.0798 38.6665 32.9507 38.6667 34V38Z" fill="#C24D2C"/>
<path d="M6 22C3.79083 22 2 23.7908 2 26C2 28.2092 3.79083 30 6 30C8.20917 30 10 28.2092 10 26C9.99783 23.7917 8.20825 22.0022 6 22ZM6 28.6667C4.52725 28.6667 3.33333 27.4727 3.33333 26C3.33333 24.5272 4.52725 23.3333 6 23.3333C7.47275 23.3333 8.66667 24.5272 8.66667 26C8.66667 27.4727 7.47275 28.6667 6 28.6667Z" fill="#C24D2C"/>
<path d="M8.66667 30.6667H8.50933L8.36867 30.7333C6.87692 31.476 5.12308 31.476 3.63133 30.7333L3.49067 30.6667H3.33333C1.49333 30.6688 0.00216667 32.16 0 34V38C0 39.1046 0.895416 40 2 40H10C11.1046 40 12 39.1046 12 38V34C11.9978 32.16 10.5067 30.6688 8.66667 30.6667ZM10.6667 38C10.6667 38.3682 10.3682 38.6667 10 38.6667H2C1.63183 38.6667 1.33333 38.3682 1.33333 38V34C1.3335 32.9507 2.14458 32.0798 3.19133 32.0053C4.97258 32.832 7.02742 32.832 8.80867 32.0053C9.85542 32.0798 10.6665 32.9507 10.6667 34V38Z" fill="#C24D2C"/>
<path d="M26.6145 33.8563C26.6141 33.8556 26.6138 33.8548 26.6134 33.854C26.4691 33.5152 26.0775 33.3577 25.7389 33.502C22.7284 34.7637 19.3851 34.9938 16.2302 34.1567L16.8542 33.9733C17.2077 33.8698 17.4104 33.4995 17.3069 33.146C17.2034 32.7925 16.833 32.5898 16.4795 32.6933L13.8129 33.4753C13.8029 33.4753 13.7955 33.4867 13.7862 33.49C13.7245 33.513 13.6665 33.5452 13.6142 33.5853C13.591 33.5978 13.5688 33.6118 13.5475 33.6273C13.4772 33.6901 13.4215 33.7674 13.3842 33.854C13.348 33.9412 13.3308 34.035 13.3335 34.1293C13.3498 34.2196 13.372 34.3087 13.4002 34.396C13.4042 34.4053 13.4002 34.416 13.4075 34.4253L14.7409 36.9767C14.9114 37.3033 15.3143 37.4298 15.6409 37.2593C15.9675 37.0888 16.094 36.6859 15.9235 36.3593L15.3809 35.322C18.9654 36.3995 22.8138 36.1901 26.2602 34.73C26.5992 34.5866 26.7579 34.1954 26.6145 33.8563Z" fill="#C24D2C"/>
<path d="M37.8045 17.5287C37.5442 17.2684 37.1222 17.2684 36.8619 17.5287L35.9185 18.472C35.3665 12.6328 31.6593 7.56567 26.2612 5.27201C25.9225 5.12767 25.5309 5.28525 25.3865 5.624C25.2422 5.96275 25.3998 6.35434 25.7385 6.49867C30.581 8.55675 33.9472 13.0544 34.5565 18.2807L33.8045 17.5287C33.5397 17.2728 33.1177 17.2802 32.8619 17.545C32.6124 17.8033 32.6124 18.2129 32.8619 18.4713L34.8619 20.4713C35.1219 20.732 35.544 20.7326 35.8047 20.4725C35.8051 20.4721 35.8055 20.4717 35.8059 20.4713L37.8059 18.4713C38.0658 18.2107 38.0652 17.7887 37.8045 17.5287Z" fill="#C24D2C"/>
<path d="M14.6473 5.77269C14.6452 5.73377 14.6394 5.69519 14.63 5.65736C14.63 5.65136 14.6227 5.64736 14.62 5.64069C14.6173 5.63402 14.62 5.62936 14.62 5.62402C14.6018 5.59161 14.5808 5.56077 14.5573 5.53202C14.5358 5.49294 14.5103 5.45611 14.4813 5.42202C14.4419 5.38711 14.3983 5.35736 14.3513 5.33336C14.3279 5.31344 14.3029 5.29536 14.2767 5.27936L11.61 4.06136C11.2694 3.92152 10.8799 4.08427 10.7401 4.42486C10.6078 4.74694 10.7458 5.11661 11.0567 5.27336L12.4373 5.90469C7.23959 8.68644 3.99625 14.1047 4 20C4 20.3682 4.2985 20.6667 4.66667 20.6667C5.03484 20.6667 5.33334 20.3682 5.33334 20C5.33 14.8089 8.07509 10.004 12.5487 7.37069L12.0667 8.37802C11.9078 8.70944 12.047 9.10694 12.378 9.26669C12.4679 9.3106 12.5666 9.33344 12.6667 9.33335C12.9227 9.33302 13.1558 9.1861 13.2667 8.95535L14.6 6.17336C14.6 6.16669 14.6 6.15936 14.6053 6.15269C14.6227 6.10711 14.6348 6.05969 14.6413 6.01136C14.6528 5.97544 14.6613 5.93869 14.6667 5.90136C14.6644 5.85794 14.658 5.81486 14.6473 5.77269Z" fill="#C24D2C"/>
</svg>
