<svg width="33" height="39" viewBox="0 0 33 39" fill="none" xmlns="http://www.w3.org/2000/svg">
<path d="M31.2568 25.8781C30.2153 28.7009 28.64 31.1554 26.5743 33.1727C24.223 35.4687 21.1441 37.2932 17.423 38.5946C17.3009 38.6372 17.1735 38.6721 17.0455 38.6978C16.8764 38.7312 16.7043 38.7492 16.5337 38.7516H16.5003C16.3185 38.7516 16.1358 38.7333 15.9545 38.6978C15.8265 38.6721 15.7009 38.6372 15.5793 38.5955C11.8538 37.2961 8.77108 35.4725 6.4174 33.1765C4.3508 31.1593 2.77586 28.7063 1.73576 25.8834C-0.155523 20.7509 -0.0479062 15.0968 0.0387196 10.5533L0.0401979 10.4835C0.0576413 10.1083 0.068876 9.7142 0.0750848 9.279C0.106719 7.14233 1.80553 5.37463 3.9425 5.25548C8.39797 5.00684 11.8447 3.55371 14.7897 0.68323L14.8154 0.659578C15.3044 0.211074 15.9205 -0.00889027 16.5337 0.000274963C17.125 0.00796192 17.7139 0.227631 18.1855 0.659578L18.2106 0.68323C21.1562 3.55371 24.6029 5.00684 29.0584 5.25548C31.1954 5.37463 32.8942 7.14233 32.9258 9.279C32.932 9.71715 32.9432 10.1107 32.9607 10.4835L32.9616 10.513C33.0479 15.0652 33.1549 20.7305 31.2568 25.8781Z" fill="#C24D2C"/>
<path d="M31.2568 25.8781C30.2153 28.7009 28.64 31.1554 26.5743 33.1727C24.223 35.4687 21.1441 37.2932 17.423 38.5946C17.3009 38.6372 17.1735 38.6721 17.0455 38.6978C16.8764 38.7312 16.7043 38.7492 16.5337 38.7516V0.000274658C17.125 0.00796161 17.7139 0.227631 18.1855 0.659577L18.2106 0.683229C21.1562 3.55371 24.6029 5.00684 29.0584 5.25548C31.1953 5.37463 32.8942 7.14233 32.9258 9.279C32.932 9.71715 32.9432 10.1107 32.9607 10.4835L32.9616 10.513C33.0479 15.0652 33.1549 20.7305 31.2568 25.8781Z" fill="#B34526"/>
<path d="M26.1573 19.3758C26.1573 24.6895 21.8429 29.0149 16.5336 29.0338H16.4996C11.1746 29.0338 6.84155 24.7011 6.84155 19.3758C6.84155 14.0508 11.1746 9.71805 16.4996 9.71805H16.5336C21.8429 9.73697 26.1573 14.0623 26.1573 19.3758Z" fill="white"/>
<path d="M26.1574 19.3758C26.1574 24.6895 21.843 29.0149 16.5337 29.0338V9.71805C21.843 9.73697 26.1574 14.0623 26.1574 19.3758Z" fill="#E1EBF0"/>
<path d="M20.8833 17.985L16.5337 22.3353L15.5938 23.2751C15.3718 23.4972 15.0806 23.608 14.7896 23.608C14.4984 23.608 14.2075 23.4972 13.9852 23.2751L11.9644 21.2535C11.5203 20.8094 11.5203 20.0901 11.9644 19.6457C12.4079 19.2017 13.1281 19.2017 13.5722 19.6457L14.7896 20.8632L19.2756 16.3773C19.7196 15.9329 20.4398 15.9329 20.8833 16.3773C21.3274 16.8214 21.3274 17.5416 20.8833 17.985Z" fill="#C24D2C"/>
<path d="M20.8833 17.985L16.5337 22.3353V19.1189L19.2756 16.3773C19.7196 15.9329 20.4398 15.9329 20.8833 16.3773C21.3274 16.8214 21.3274 17.5416 20.8833 17.985Z" fill="#B24526"/>
</svg>
